<svg xmlns="http://www.w3.org/2000/svg" xlink="http://www.w3.org/1999/xlink" width="0" height="0" style="display:none;"><symbol viewBox="0 0 1024 1024" id="lugia-symbol-icon-symbol__audit_error_color">
  <defs>
    <polygon id="&#x753B;&#x677F;-a" points="0 0 576 0 576 576 0 576"/>
  </defs>
  <g fill="none" fill-rule="evenodd" transform="translate(64)">
    <g transform="translate(320 448)">
      <mask id="&#x753B;&#x677F;-b" fill="#fff">
        <use href="#&#x753B;&#x677F;-a"/>
      </mask>
      <path fill="#4B5DFF" d="M440.7354,440.7354 C399.9374,481.5324 345.6954,504.0004 288.0004,504.0004 C230.3044,504.0004 176.0624,481.5324 135.2644,440.7354 C94.4674,399.9374 72.0004,345.6954 72.0004,288.0004 C72.0004,230.3044 94.4674,176.0624 135.2644,135.2654 C176.0624,94.4674 230.3044,72.0004 288.0004,72.0004 C345.6954,72.0004 399.9374,94.4674 440.7354,135.2654 C481.5324,176.0624 504.0004,230.3044 504.0004,288.0004 C504.0004,345.6954 481.5324,399.9374 440.7354,440.7354 M288.0004,0.0004 C128.9414,0.0004 0.0004,128.9414 0.0004,288.0004 C0.0004,447.0584 128.9414,576.0004 288.0004,576.0004 C447.0584,576.0004 576.0004,447.0584 576.0004,288.0004 C576.0004,128.9414 447.0584,0.0004 288.0004,0.0004" mask="url(#&#x753B;&#x677F;-b)"/>
    </g>
    <path fill="#2B3036" d="M284,952 L72,952 L72,72 L696,72 L696,348 C696,367.883 712.117,384 732,384 C751.883,384 768,367.883 768,348 L768,64 C768,28.654 739.346,0 704,0 L64,0 C28.654,0 0,28.654 0,64 L0,960 C0,995.346 28.654,1024 64,1024 L284,1024 C303.883,1024 320,1007.883 320,988 C320,968.117 303.883,952 284,952 Z M164.074,384.504 C144.193,384.504 128.074,400.623 128.074,420.504 C128.074,440.387 144.193,456.504 164.074,456.504 L348.074,456.504 C367.957,456.504 384.074,440.387 384.074,420.504 C384.074,400.623 367.957,384.504 348.074,384.504 L164.074,384.504 Z M608,264.504 L164.074,264.504 C144.193,264.504 128.074,248.387 128.074,228.504 C128.074,208.623 144.193,192.504 164.074,192.504 L608,192.504 C627.882,192.504 644,208.623 644,228.504 C644,248.387 627.882,264.504 608,264.504 Z"/>
    <path fill="#4B5DFF" d="M720.9707,623.0293 C708.8397,610.9003 689.1737,610.9003 677.0447,623.0293 L607.9997,692.0743 L539.2867,623.3613 C527.1587,611.2313 507.4917,611.2313 495.3617,623.3613 C483.2327,635.4913 483.2317,655.1583 495.3617,667.2873 L564.0747,736.0003 L495.4037,804.6703 C483.2737,816.8003 483.2737,836.4663 495.4037,848.5963 C507.5337,860.7263 527.1997,860.7263 539.3297,848.5963 L607.9997,779.9253 L676.8577,848.7833 C688.9877,860.9133 708.6547,860.9133 720.7837,848.7833 C732.9127,836.6533 732.9127,816.9873 720.7837,804.8573 L651.9257,736.0003 L720.9707,666.9563 C733.0997,654.8263 733.0997,635.1603 720.9707,623.0293"/>
  </g>
</symbol><symbol viewBox="0 0 1024 1024" id="lugia-symbol-icon-symbol_audit">
  <defs>
    <polygon id="symbol_--a" points="0 0 576 0 576 576 0 576"/>
  </defs>
  <g fill="none" fill-rule="evenodd" transform="translate(64)">
    <path fill="#4B5DFF" d="M759.0957,669.8721 C747.2217,657.9991 727.9727,657.9991 716.0997,669.8721 L577.5977,801.6171 L499.9007,723.9221 C488.0277,712.0491 468.7787,712.0491 456.9047,723.9221 C445.0317,735.7951 445.0317,755.0451 456.9047,766.9181 L556.0997,866.1121 C562.0347,872.0491 569.8167,875.0181 577.5977,875.0181 C585.3777,875.0181 593.1587,872.0491 599.0957,866.1121 L759.0957,712.8691 C770.9687,700.9951 770.9687,681.7461 759.0957,669.8721"/>
    <g transform="translate(320 448)">
      <mask id="symbol_--b" fill="#fff">
        <use href="#symbol_--a"/>
      </mask>
      <path fill="#4B5DFF" d="M440.7344,440.7354 C399.9374,481.5324 345.6954,504.0004 288.0004,504.0004 C230.3044,504.0004 176.0624,481.5324 135.2654,440.7354 C94.4674,399.9374 72.0004,345.6954 72.0004,288.0004 C72.0004,230.3044 94.4674,176.0624 135.2654,135.2654 C176.0624,94.4674 230.3044,72.0004 288.0004,72.0004 C345.6954,72.0004 399.9374,94.4674 440.7344,135.2654 C481.5324,176.0624 504.0004,230.3044 504.0004,288.0004 C504.0004,345.6954 481.5324,399.9374 440.7344,440.7354 M288.0004,0.0004 C128.9414,0.0004 0.0004,128.9414 0.0004,288.0004 C0.0004,447.0584 128.9414,576.0004 288.0004,576.0004 C447.0584,576.0004 576.0004,447.0584 576.0004,288.0004 C576.0004,128.9414 447.0584,0.0004 288.0004,0.0004" mask="url(#symbol_--b)"/>
    </g>
    <path fill="#2B3036" d="M284,952 L72,952 L72,72 L696,72 L696,348 C696,367.883 712.117,384 732,384 C751.883,384 768,367.883 768,348 L768,64 C768,28.654 739.346,0 704,0 L64,0 C28.654,0 0,28.654 0,64 L0,960 C0,995.346 28.654,1024 64,1024 L284,1024 C303.883,1024 320,1007.883 320,988 C320,968.117 303.883,952 284,952 Z M164.074,384.504 C144.193,384.504 128.074,400.623 128.074,420.504 C128.074,440.387 144.193,456.504 164.074,456.504 L348.074,456.504 C367.957,456.504 384.074,440.387 384.074,420.504 C384.074,400.623 367.957,384.504 348.074,384.504 L164.074,384.504 Z M608,264.504 L164.074,264.504 C144.193,264.504 128.074,248.387 128.074,228.504 C128.074,208.623 144.193,192.504 164.074,192.504 L608,192.504 C627.882,192.504 644,208.623 644,228.504 C644,248.387 627.882,264.504 608,264.504 Z"/>
  </g>
</symbol><symbol viewBox="0 0 1024 1024" id="lugia-symbol-icon-symbol_reverse_audit">
  <defs>
    <polygon id="symbol_reverse-audit-a" points=".781 .485 546 .485 546 375.181 .781 375.181"/>
  </defs>
  <g fill="none" fill-rule="evenodd" transform="translate(65)">
    <path fill="#2B3036" d="M284,952 L72,952 L72,72 L696,72 L696,348 C696,367.883 712.118,384 732,384 C751.883,384 768,367.883 768,348 L768,64 C768,28.654 739.347,0 704,0 L64,0 C28.654,0 0,28.654 0,64 L0,960 C0,995.346 28.654,1024 64,1024 L284,1024 C303.883,1024 320,1007.883 320,988 C320,968.117 303.883,952 284,952 Z M164.075,384.504 C144.193,384.504 128.075,400.623 128.075,420.504 C128.075,440.387 144.193,456.504 164.075,456.504 L348.075,456.504 C367.957,456.504 384.075,440.387 384.075,420.504 C384.075,400.623 367.957,384.504 348.075,384.504 L164.075,384.504 Z M608,264.504 L164.075,264.504 C144.193,264.504 128.075,248.387 128.075,228.504 C128.075,208.623 144.193,192.504 164.075,192.504 L608,192.504 C627.882,192.504 644,208.623 644,228.504 C644,248.387 627.882,264.504 608,264.504 Z"/>
    <path fill="#4B5DFF" d="M374.5059,801.0049 C387.1529,793.7029 394.2349,779.4709 392.1769,765.0129 C390.7349,754.8879 390.0009,744.5909 390.0009,734.1819 C390.0009,676.4849 412.4689,622.2429 453.2659,581.4459 C494.0629,540.6489 548.3049,518.1819 606.0009,518.1819 C653.9939,518.1819 699.5889,533.7399 737.0499,562.4539 L707.4439,592.0609 C697.3649,602.1399 704.5039,619.3739 718.7579,619.3739 L825.8569,619.3739 C834.6929,619.3739 841.8569,612.2109 841.8569,603.3739 L841.8569,496.2759 C841.8569,482.0209 824.6219,474.8819 814.5429,484.9619 L788.2759,511.2299 C738.4069,470.4039 674.6089,445.9659 605.0809,446.1829 C446.0869,446.6799 316.9649,577.1109 318.0069,736.1039 C318.0929,749.2759 319.0659,762.2359 320.8669,774.9309 C324.4459,800.1599 352.4389,813.7459 374.5059,801.0049"/>
    <g transform="translate(348 647)">
      <mask id="symbol_reverse-audit-b" fill="#fff">
        <use href="#symbol_reverse-audit-a"/>
      </mask>
      <path fill="#4B5DFF" d="M545.8086,76.5684 C545.2216,60.3864 543.2976,44.5474 540.1466,29.1564 C535.2306,5.1444 508.1366,-6.9186 486.9106,5.3364 C473.4706,13.0954 466.5796,28.5824 469.6656,43.7914 C472.5326,57.9174 474.0006,72.4364 474.0006,87.1814 C474.0006,154.9184 443.0316,217.8954 387.7906,259.9424 C358.8006,282.0084 324.4776,296.2244 288.3746,301.1194 C220.8236,310.2764 155.5636,288.5964 107.8806,242.4584 L135.1926,215.1464 C145.2716,205.0664 138.1326,187.8324 123.8786,187.8324 L16.7806,187.8324 C7.9436,187.8324 0.7806,194.9964 0.7806,203.8324 L0.7806,310.9314 C0.7806,325.1854 18.0146,332.3244 28.0936,322.2454 L56.9786,293.3594 C106.6696,341.8224 173.7876,372.4944 248.0676,375.0134 C414.5536,380.6584 551.8466,243.0404 545.8086,76.5684" mask="url(#symbol_reverse-audit-b)"/>
    </g>
  </g>
</symbol></svg>